<svg version="1.1" viewBox="0.0 0.0 960.0 540.0" fill="none" stroke="none" stroke-linecap="square" stroke-miterlimit="10" xmlns:xlink="http://www.w3.org/1999/xlink" xmlns="http://www.w3.org/2000/svg"><clipPath id="g27f220bd04c_0_0.0"><path d="m0 0l960.0 0l0 540.0l-960.0 0l0 -540.0z" clip-rule="nonzero"/></clipPath><g clip-path="url(#g27f220bd04c_0_0.0)"><path fill="#ffffff" d="m0 0l960.0 0l0 540.0l-960.0 0z" fill-rule="evenodd"/><path fill="#000000" fill-opacity="0.0" d="m412.70068 270.0l0 0c0 -113.15314 91.72168 -204.8819 204.86615 -204.8819l0 0c54.333862 0 106.44238 21.585709 144.86224 60.008514c38.41986 38.422813 60.003906 90.53532 60.003906 144.87338l0 0c0 113.15314 -91.72174 204.8819 -204.86615 204.8819l0 0c-113.14447 0 -204.86615 -91.72876 -204.86615 -204.8819z" fill-rule="evenodd"/><path stroke="#b7b7b7" stroke-width="1.0" stroke-linejoin="round" stroke-linecap="butt" stroke-dasharray="4.0,3.0" d="m412.70068 270.0l0 0c0 -113.15314 91.72168 -204.8819 204.86615 -204.8819l0 0c54.333862 0 106.44238 21.585709 144.86224 60.008514c38.41986 38.422813 60.003906 90.53532 60.003906 144.87338l0 0c0 113.15314 -91.72174 204.8819 -204.86615 204.8819l0 0c-113.14447 0 -204.86615 -91.72876 -204.86615 -204.8819z" fill-rule="evenodd"/><path fill="#eeeeee" d="m497.40945 173.87401l0 0c0 -13.272217 10.759247 -24.031494 24.031464 -24.031494l0 0c6.373596 0 12.486084 2.5318909 16.992859 7.038666c4.506775 4.506775 7.0386353 10.619293 7.0386353 16.992828l0 0c0 13.272232 -10.759216 24.03151 -24.031494 24.03151l0 0c-13.272217 0 -24.031464 -10.759277 -24.031464 -24.03151z" fill-rule="evenodd"/><path stroke="#595959" stroke-width="1.0" stroke-linejoin="round" stroke-linecap="butt" d="m497.40945 173.87401l0 0c0 -13.272217 10.759247 -24.031494 24.031464 -24.031494l0 0c6.373596 0 12.486084 2.5318909 16.992859 7.038666c4.506775 4.506775 7.0386353 10.619293 7.0386353 16.992828l0 0c0 13.272232 -10.759216 24.03151 -24.031494 24.03151l0 0c-13.272217 0 -24.031464 -10.759277 -24.031464 -24.03151z" fill-rule="evenodd"/><path fill="#000000" d="m524.51996 175.04901l0 -2.21875q0 -0.90625 -0.203125 -1.59375q-0.203125 -0.703125 -0.59375 -1.1875q-0.40625 -0.484375 -0.984375 -0.734375q-0.5625 -0.25 -1.28125 -0.25q-0.734375 0 -1.3125 0.25q-0.5625 0.25 -0.953125 0.734375q-0.390625 0.484375 -0.609375 1.1875q-0.203125 0.6875 -0.203125 1.59375l0 2.21875q0 0.90625 0.203125 1.609375q0.21875 0.6875 0.609375 1.171875q0.40625 0.484375 0.96875 0.734375q0.578125 0.234375 1.296875 0.234375q0.734375 0 1.296875 -0.234375q0.578125 -0.25 0.96875 -0.734375q0.390625 -0.484375 0.59375 -1.171875q0.203125 -0.703125 0.203125 -1.609375zm-4.921875 -0.234375q0 -0.171875 0 -0.328125q0 -0.171875 0 -0.328125l0 -1.59375q0 -0.671875 0.125 -1.171875q0.140625 -0.5 0.40625 -0.828125q0.234375 -0.25 0.5625 -0.375q0.328125 -0.140625 0.765625 -0.140625q0.421875 0 0.734375 0.125q0.328125 0.125 0.546875 0.375q0.234375 0.234375 0.359375 0.59375q0.140625 0.359375 0.1875 0.828125l-3.6875 2.84375zm3.71875 0.484375q0 0.703125 -0.140625 1.21875q-0.140625 0.515625 -0.4375 0.828125q-0.234375 0.234375 -0.546875 0.359375q-0.3125 0.125 -0.734375 0.125q-0.390625 0 -0.703125 -0.109375q-0.3125 -0.125 -0.53125 -0.34375q-0.234375 -0.234375 -0.390625 -0.59375q-0.140625 -0.359375 -0.203125 -0.84375l3.6875 -2.8125q0 0.1875 0 0.46875q0 0.265625 0 0.359375l0 1.34375z" fill-rule="nonzero"/><path fill="#eeeeee" d="m593.53546 270.0l0 0c0 -13.272217 10.759216 -24.031494 24.031494 -24.031494l0 0c6.373535 0 12.486023 2.5318756 16.992798 7.038666c4.506775 4.506775 7.0386963 10.619293 7.0386963 16.992828l0 0c0 13.272217 -10.759277 24.031494 -24.031494 24.031494l0 0c-13.272278 0 -24.031494 -10.759277 -24.031494 -24.031494z" fill-rule="evenodd"/><path stroke="#595959" stroke-width="1.0" stroke-linejoin="round" stroke-linecap="butt" d="m593.53546 270.0l0 0c0 -13.272217 10.759216 -24.031494 24.031494 -24.031494l0 0c6.373535 0 12.486023 2.5318756 16.992798 7.038666c4.506775 4.506775 7.0386963 10.619293 7.0386963 16.992828l0 0c0 13.272217 -10.759277 24.031494 -24.031494 24.031494l0 0c-13.272278 0 -24.031494 -10.759277 -24.031494 -24.031494z" fill-rule="evenodd"/><path fill="#000000" d="m618.59906 274.8l0 -9.46875l-0.09375 0l-3.578125 1.375l0 1.09375l2.46875 -0.9375l0 7.9375l1.203125 0z" fill-rule="nonzero"/><path fill="#eeeeee" d="m497.40945 270.0l0 0c0 -13.272217 10.759247 -24.031494 24.031464 -24.031494l0 0c6.373596 0 12.486084 2.5318756 16.992859 7.038666c4.506775 4.506775 7.0386353 10.619293 7.0386353 16.992828l0 0c0 13.272217 -10.759216 24.031494 -24.031494 24.031494l0 0c-13.272217 0 -24.031464 -10.759277 -24.031464 -24.031494z" fill-rule="evenodd"/><path stroke="#595959" stroke-width="1.0" stroke-linejoin="round" stroke-linecap="butt" d="m497.40945 270.0l0 0c0 -13.272217 10.759247 -24.031494 24.031464 -24.031494l0 0c6.373596 0 12.486084 2.5318756 16.992859 7.038666c4.506775 4.506775 7.0386353 10.619293 7.0386353 16.992828l0 0c0 13.272217 -10.759216 24.031494 -24.031494 24.031494l0 0c-13.272217 0 -24.031464 -10.759277 -24.031464 -24.031494z" fill-rule="evenodd"/><path fill="#000000" d="m522.4731 274.8l0 -9.46875l-0.09375 0l-3.578125 1.375l0 1.09375l2.46875 -0.9375l0 7.9375l1.203125 0z" fill-rule="nonzero"/><path fill="#eeeeee" d="m497.40945 366.12598l0 0c0 -13.272217 10.759247 -24.031494 24.031464 -24.031494l0 0c6.373596 0 12.486084 2.5318909 16.992859 7.038666c4.506775 4.506775 7.0386353 10.619293 7.0386353 16.992828l0 0c0 13.272247 -10.759216 24.031494 -24.031494 24.031494l0 0c-13.272217 0 -24.031464 -10.759247 -24.031464 -24.031494z" fill-rule="evenodd"/><path stroke="#595959" stroke-width="1.0" stroke-linejoin="round" stroke-linecap="butt" d="m497.40945 366.12598l0 0c0 -13.272217 10.759247 -24.031494 24.031464 -24.031494l0 0c6.373596 0 12.486084 2.5318909 16.992859 7.038666c4.506775 4.506775 7.0386353 10.619293 7.0386353 16.992828l0 0c0 13.272247 -10.759216 24.031494 -24.031494 24.031494l0 0c-13.272217 0 -24.031464 -10.759247 -24.031464 -24.031494z" fill-rule="evenodd"/><path fill="#000000" d="m524.37933 370.926l0 -0.984375l-4.75 0l2.546875 -2.75q0.359375 -0.390625 0.671875 -0.78125q0.328125 -0.40625 0.578125 -0.8125q0.234375 -0.40625 0.375 -0.8125q0.15625 -0.40625 0.15625 -0.828125q0 -0.578125 -0.203125 -1.046875q-0.203125 -0.484375 -0.578125 -0.84375q-0.359375 -0.34375 -0.90625 -0.546875q-0.53125 -0.203125 -1.203125 -0.203125q-0.734375 0 -1.3125 0.234375q-0.5625 0.234375 -0.953125 0.640625q-0.390625 0.390625 -0.609375 0.921875q-0.203125 0.53125 -0.203125 1.125l1.21875 0q0 -0.4375 0.109375 -0.796875q0.109375 -0.359375 0.34375 -0.609375q0.234375 -0.25 0.578125 -0.375q0.359375 -0.140625 0.828125 -0.140625q0.390625 0 0.703125 0.140625q0.3125 0.125 0.53125 0.34375q0.203125 0.234375 0.3125 0.546875q0.125 0.296875 0.125 0.65625q0 0.28125 -0.078125 0.5625q-0.0625 0.265625 -0.234375 0.5625q-0.171875 0.296875 -0.453125 0.65625q-0.28125 0.359375 -0.6875 0.828125l-3.109375 3.453125l0 0.859375l6.203125 0z" fill-rule="nonzero"/><path fill="#eeeeee" d="m593.53546 366.12598l0 0c0 -13.272217 10.759216 -24.031494 24.031494 -24.031494l0 0c6.373535 0 12.486023 2.5318909 16.992798 7.038666c4.506775 4.506775 7.0386963 10.619293 7.0386963 16.992828l0 0c0 13.272247 -10.759277 24.031494 -24.031494 24.031494l0 0c-13.272278 0 -24.031494 -10.759247 -24.031494 -24.031494z" fill-rule="evenodd"/><path stroke="#595959" stroke-width="1.0" stroke-linejoin="round" stroke-linecap="butt" d="m593.53546 366.12598l0 0c0 -13.272217 10.759216 -24.031494 24.031494 -24.031494l0 0c6.373535 0 12.486023 2.5318909 16.992798 7.038666c4.506775 4.506775 7.0386963 10.619293 7.0386963 16.992828l0 0c0 13.272247 -10.759277 24.031494 -24.031494 24.031494l0 0c-13.272278 0 -24.031494 -10.759247 -24.031494 -24.031494z" fill-rule="evenodd"/><path fill="#000000" d="m620.5053 370.926l0 -0.984375l-4.75 0l2.546875 -2.75q0.359375 -0.390625 0.671875 -0.78125q0.328125 -0.40625 0.578125 -0.8125q0.234375 -0.40625 0.375 -0.8125q0.15625 -0.40625 0.15625 -0.828125q0 -0.578125 -0.203125 -1.046875q-0.203125 -0.484375 -0.578125 -0.84375q-0.359375 -0.34375 -0.90625 -0.546875q-0.53125 -0.203125 -1.203125 -0.203125q-0.734375 0 -1.3125 0.234375q-0.5625 0.234375 -0.953125 0.640625q-0.390625 0.390625 -0.609375 0.921875q-0.203125 0.53125 -0.203125 1.125l1.21875 0q0 -0.4375 0.109375 -0.796875q0.109375 -0.359375 0.34375 -0.609375q0.234375 -0.25 0.578125 -0.375q0.359375 -0.140625 0.828125 -0.140625q0.390625 0 0.703125 0.140625q0.3125 0.125 0.53125 0.34375q0.203125 0.234375 0.3125 0.546875q0.125 0.296875 0.125 0.65625q0 0.28125 -0.078125 0.5625q-0.0625 0.265625 -0.234375 0.5625q-0.171875 0.296875 -0.453125 0.65625q-0.28125 0.359375 -0.6875 0.828125l-3.109375 3.453125l0 0.859375l6.203125 0z" fill-rule="nonzero"/><path fill="#eeeeee" d="m689.66144 270.0l0 0c0 -13.272217 10.759216 -24.031494 24.031494 -24.031494l0 0c6.373535 0 12.486023 2.5318756 16.992798 7.038666c4.506775 4.506775 7.0386963 10.619293 7.0386963 16.992828l0 0c0 13.272217 -10.759277 24.031494 -24.031494 24.031494l0 0c-13.272278 0 -24.031494 -10.759277 -24.031494 -24.031494z" fill-rule="evenodd"/><path stroke="#595959" stroke-width="1.0" stroke-linejoin="round" stroke-linecap="butt" d="m689.66144 270.0l0 0c0 -13.272217 10.759216 -24.031494 24.031494 -24.031494l0 0c6.373535 0 12.486023 2.5318756 16.992798 7.038666c4.506775 4.506775 7.0386963 10.619293 7.0386963 16.992828l0 0c0 13.272217 -10.759277 24.031494 -24.031494 24.031494l0 0c-13.272278 0 -24.031494 -10.759277 -24.031494 -24.031494z" fill-rule="evenodd"/><path fill="#000000" d="m714.7251 274.8l0 -9.46875l-0.09375 0l-3.578125 1.375l0 1.09375l2.46875 -0.9375l0 7.9375l1.203125 0z" fill-rule="nonzero"/><path fill="#000000" fill-opacity="0.0" d="m689.66144 270.0l-48.06299 0" fill-rule="evenodd"/><path stroke="#b7b7b7" stroke-width="1.0" stroke-linejoin="round" stroke-linecap="butt" stroke-dasharray="4.0,3.0" d="m689.66144 270.0l-48.06299 0" fill-rule="evenodd"/><path fill="#000000" fill-opacity="0.0" d="m593.53546 270.0l-48.06305 0" fill-rule="evenodd"/><path stroke="#b7b7b7" stroke-width="1.0" stroke-linejoin="round" stroke-linecap="butt" stroke-dasharray="4.0,3.0" d="m593.53546 270.0l-48.06305 0" fill-rule="evenodd"/><path fill="#000000" fill-opacity="0.0" d="m545.4724 366.12598l48.06305 0" fill-rule="evenodd"/><path stroke="#b7b7b7" stroke-width="1.0" stroke-linejoin="round" stroke-linecap="butt" stroke-dasharray="4.0,3.0" d="m545.4724 366.12598l48.06305 0" fill-rule="evenodd"/><path fill="#000000" fill-opacity="0.0" d="m521.4409 342.09448l0 -48.06299" fill-rule="evenodd"/><path stroke="#b7b7b7" stroke-width="1.0" stroke-linejoin="round" stroke-linecap="butt" stroke-dasharray="4.0,3.0" d="m521.4409 342.09448l0 -48.06299" fill-rule="evenodd"/><path fill="#000000" fill-opacity="0.0" d="m521.4409 245.9685l0 -48.06299" fill-rule="evenodd"/><path stroke="#b7b7b7" stroke-width="1.0" stroke-linejoin="round" stroke-linecap="butt" stroke-dasharray="4.0,3.0" d="m521.4409 245.9685l0 -48.06299" fill-rule="evenodd"/><path fill="#000000" fill-opacity="0.0" d="m137.56693 173.87401l0 0c0 -13.272217 10.759277 -24.031494 24.031494 -24.031494l0 0c6.3735504 0 12.486053 2.5318909 16.992844 7.038666c4.506775 4.506775 7.038666 10.619293 7.038666 16.992828l0 0c0 13.272232 -10.759277 24.03151 -24.03151 24.03151l0 0c-13.272217 0 -24.031494 -10.759277 -24.031494 -24.03151z" fill-rule="evenodd"/><path stroke="#b7b7b7" stroke-width="1.0" stroke-linejoin="round" stroke-linecap="butt" stroke-dasharray="4.0,3.0" d="m137.56693 173.87401l0 0c0 -13.272217 10.759277 -24.031494 24.031494 -24.031494l0 0c6.3735504 0 12.486053 2.5318909 16.992844 7.038666c4.506775 4.506775 7.038666 10.619293 7.038666 16.992828l0 0c0 13.272232 -10.759277 24.03151 -24.03151 24.03151l0 0c-13.272217 0 -24.031494 -10.759277 -24.031494 -24.03151z" fill-rule="evenodd"/><path fill="#eeeeee" d="m137.56693 270.0l0 0c0 -13.272217 10.759277 -24.031494 24.031494 -24.031494l0 0c6.3735504 0 12.486053 2.5318756 16.992844 7.038666c4.506775 4.506775 7.038666 10.619293 7.038666 16.992828l0 0c0 13.272217 -10.759277 24.031494 -24.03151 24.031494l0 0c-13.272217 0 -24.031494 -10.759277 -24.031494 -24.031494z" fill-rule="evenodd"/><path stroke="#595959" stroke-width="1.0" stroke-linejoin="round" stroke-linecap="butt" d="m137.56693 270.0l0 0c0 -13.272217 10.759277 -24.031494 24.031494 -24.031494l0 0c6.3735504 0 12.486053 2.5318756 16.992844 7.038666c4.506775 4.506775 7.038666 10.619293 7.038666 16.992828l0 0c0 13.272217 -10.759277 24.031494 -24.03151 24.031494l0 0c-13.272217 0 -24.031494 -10.759277 -24.031494 -24.031494z" fill-rule="evenodd"/><path fill="#000000" fill-opacity="0.0" d="m137.56693 366.12598l0 0c0 -13.272217 10.759277 -24.031494 24.031494 -24.031494l0 0c6.3735504 0 12.486053 2.5318909 16.992844 7.038666c4.506775 4.506775 7.038666 10.619293 7.038666 16.992828l0 0c0 13.272247 -10.759277 24.031494 -24.03151 24.031494l0 0c-13.272217 0 -24.031494 -10.759247 -24.031494 -24.031494z" fill-rule="evenodd"/><path fill="#000000" d="m164.67746 367.301l0 -2.21875q0 -0.90625 -0.203125 -1.59375q-0.203125 -0.703125 -0.59375 -1.1875q-0.40625 -0.484375 -0.984375 -0.734375q-0.5625 -0.25 -1.28125 -0.25q-0.734375 0 -1.3125 0.25q-0.5625 0.25 -0.953125 0.734375q-0.390625 0.484375 -0.609375 1.1875q-0.203125 0.6875 -0.203125 1.59375l0 2.21875q0 0.90625 0.203125 1.609375q0.21875 0.6875 0.609375 1.171875q0.40625 0.484375 0.96875 0.734375q0.578125 0.234375 1.296875 0.234375q0.734375 0 1.296875 -0.234375q0.578125 -0.25 0.96875 -0.734375q0.390625 -0.484375 0.59375 -1.171875q0.203125 -0.703125 0.203125 -1.609375zm-4.921875 -0.234375q0 -0.171875 0 -0.328125q0 -0.171875 0 -0.328125l0 -1.59375q0 -0.671875 0.125 -1.171875q0.140625 -0.5 0.40625 -0.828125q0.234375 -0.25 0.5625 -0.375q0.328125 -0.140625 0.765625 -0.140625q0.421875 0 0.734375 0.125q0.328125 0.125 0.546875 0.375q0.234375 0.234375 0.359375 0.59375q0.140625 0.359375 0.1875 0.828125l-3.6875 2.84375zm3.71875 0.484375q0 0.703125 -0.140625 1.21875q-0.140625 0.515625 -0.4375 0.828125q-0.234375 0.234375 -0.546875 0.359375q-0.3125 0.125 -0.734375 0.125q-0.390625 0 -0.703125 -0.109375q-0.3125 -0.125 -0.53125 -0.34375q-0.234375 -0.234375 -0.390625 -0.59375q-0.140625 -0.359375 -0.203125 -0.84375l3.6875 -2.8125q0 0.1875 0 0.46875q0 0.265625 0 0.359375l0 1.34375z" fill-rule="nonzero"/><path fill="#000000" fill-opacity="0.0" d="m233.69292 149.84251l96.12599 0l0 48.063004l-96.12599 0z" fill-rule="evenodd"/><path fill="#000000" d="m248.50542 176.79901q0 0.171875 -0.0625 0.328125q-0.0625 0.140625 -0.1875 0.265625q-0.203125 0.203125 -0.5625 0.328125q-0.359375 0.109375 -0.84375 0.109375q-0.296875 0 -0.609375 -0.0625q-0.3125 -0.0625 -0.578125 -0.21875q-0.25 -0.15625 -0.421875 -0.40625q-0.171875 -0.265625 -0.203125 -0.640625l-1.203125 0q0 0.453125 0.203125 0.875q0.203125 0.40625 0.59375 0.71875q0.390625 0.328125 0.9375 0.515625q0.5625 0.1875 1.28125 0.1875q0.625 0 1.15625 -0.140625q0.53125 -0.15625 0.90625 -0.421875q0.375 -0.28125 0.578125 -0.65625q0.21875 -0.390625 0.21875 -0.859375q0 -0.4375 -0.1875 -0.765625q-0.1875 -0.328125 -0.53125 -0.59375q-0.359375 -0.234375 -0.875 -0.40625q-0.515625 -0.1875 -1.15625 -0.328125q-0.5 -0.09375 -0.828125 -0.203125q-0.3125 -0.109375 -0.5 -0.234375q-0.203125 -0.125 -0.28125 -0.28125q-0.078125 -0.171875 -0.078125 -0.375q0 -0.203125 0.09375 -0.390625q0.109375 -0.203125 0.296875 -0.34375q0.1875 -0.140625 0.46875 -0.21875q0.296875 -0.09375 0.6875 -0.09375q0.375 0 0.671875 0.109375q0.296875 0.109375 0.5 0.265625q0.203125 0.171875 0.3125 0.390625q0.125 0.21875 0.125 0.453125l1.203125 0q0 -0.46875 -0.203125 -0.859375q-0.1875 -0.40625 -0.546875 -0.703125q-0.375 -0.296875 -0.890625 -0.46875q-0.515625 -0.171875 -1.171875 -0.171875q-0.609375 0 -1.109375 0.171875q-0.5 0.15625 -0.875 0.4375q-0.359375 0.28125 -0.5625 0.65625q-0.203125 0.375 -0.203125 0.796875q0 0.4375 0.1875 0.765625q0.203125 0.328125 0.5625 0.5625q0.359375 0.25 0.84375 0.4375q0.5 0.171875 1.109375 0.296875q0.5 0.09375 0.828125 0.21875q0.328125 0.109375 0.53125 0.25q0.203125 0.15625 0.28125 0.328125q0.09375 0.171875 0.09375 0.375zm3.8888092 4.71875q0.46875 0 0.828125 -0.171875q0.375 -0.171875 0.640625 -0.4375q0.28125 -0.265625 0.46875 -0.578125q0.1875 -0.296875 0.3125 -0.5625l3.578125 -8.140625l-1.34375 0l-1.828125 4.578125l-0.328125 0.828125l-0.3125 -0.859375l-1.921875 -4.546875l-1.359375 0l3.03125 6.71875l-0.46875 0.9375q-0.078125 0.125 -0.1875 0.328125q-0.109375 0.203125 -0.265625 0.390625q-0.171875 0.1875 -0.375 0.328125q-0.203125 0.140625 -0.453125 0.140625q-0.078125 0 -0.25 -0.015625q-0.15625 -0.015625 -0.3125 -0.03125l-0.203125 0.984375q0.125 0.03125 0.34375 0.0625q0.234375 0.046875 0.40625 0.046875zm12.107544 -4.71875q0 0.171875 -0.0625 0.328125q-0.0625 0.140625 -0.1875 0.265625q-0.203125 0.203125 -0.5625 0.328125q-0.359375 0.109375 -0.84375 0.109375q-0.296875 0 -0.609375 -0.0625q-0.3125 -0.0625 -0.578125 -0.21875q-0.25 -0.15625 -0.421875 -0.40625q-0.171875 -0.265625 -0.203125 -0.640625l-1.203125 0q0 0.453125 0.203125 0.875q0.203125 0.40625 0.59375 0.71875q0.390625 0.328125 0.9375 0.515625q0.5625 0.1875 1.28125 0.1875q0.625 0 1.15625 -0.140625q0.53125 -0.15625 0.90625 -0.421875q0.375 -0.28125 0.578125 -0.65625q0.21875 -0.390625 0.21875 -0.859375q0 -0.4375 -0.1875 -0.765625q-0.1875 -0.328125 -0.53125 -0.59375q-0.359375 -0.234375 -0.875 -0.40625q-0.515625 -0.1875 -1.15625 -0.328125q-0.5 -0.09375 -0.828125 -0.203125q-0.3125 -0.109375 -0.5 -0.234375q-0.203125 -0.125 -0.28125 -0.28125q-0.078125 -0.171875 -0.078125 -0.375q0 -0.203125 0.09375 -0.390625q0.109375 -0.203125 0.296875 -0.34375q0.1875 -0.140625 0.46875 -0.21875q0.296875 -0.09375 0.6875 -0.09375q0.375 0 0.671875 0.109375q0.296875 0.109375 0.5 0.265625q0.203125 0.171875 0.3125 0.390625q0.125 0.21875 0.125 0.453125l1.203125 0q0 -0.46875 -0.203125 -0.859375q-0.1875 -0.40625 -0.546875 -0.703125q-0.375 -0.296875 -0.890625 -0.46875q-0.515625 -0.171875 -1.171875 -0.171875q-0.609375 0 -1.109375 0.171875q-0.5 0.15625 -0.875 0.4375q-0.359375 0.28125 -0.5625 0.65625q-0.203125 0.375 -0.203125 0.796875q0 0.4375 0.1875 0.765625q0.203125 0.328125 0.5625 0.5625q0.359375 0.25 0.84375 0.4375q0.5 0.171875 1.109375 0.296875q0.5 0.09375 0.828125 0.21875q0.328125 0.109375 0.53125 0.25q0.203125 0.15625 0.28125 0.328125q0.09375 0.171875 0.09375 0.375zm6.1700745 -6.875l-1.21875 0l0 1.703125l-1.84375 0l0 0.9375l1.84375 0l0 3.828125q0 0.640625 0.171875 1.109375q0.1875 0.453125 0.484375 0.75q0.296875 0.28125 0.703125 0.421875q0.40625 0.125 0.875 0.125q0.28125 0 0.5625 -0.03125q0.28125 -0.015625 0.53125 -0.0625q0.265625 -0.046875 0.46875 -0.109375q0.21875 -0.078125 0.375 -0.171875l-0.171875 -0.84375q-0.109375 0.015625 -0.28125 0.0625q-0.171875 0.03125 -0.375 0.0625q-0.203125 0.03125 -0.40625 0.0625q-0.203125 0.015625 -0.40625 0.015625q-0.265625 0 -0.5 -0.0625q-0.234375 -0.0625 -0.421875 -0.234375q-0.1875 -0.15625 -0.296875 -0.421875q-0.09375 -0.265625 -0.09375 -0.671875l0 -3.828125l2.6875 0l0 -0.9375l-2.6875 0l0 -1.703125zm8.263794 8.875q1.015625 0 1.71875 -0.40625q0.703125 -0.421875 1.046875 -0.953125l-0.734375 -0.5625q-0.328125 0.421875 -0.828125 0.6875q-0.5 0.25 -1.140625 0.25q-0.5 0 -0.90625 -0.171875q-0.390625 -0.1875 -0.671875 -0.5q-0.28125 -0.296875 -0.453125 -0.6875q-0.15625 -0.390625 -0.203125 -0.90625l0 -0.046875l5.03125 0l0 -0.546875q0 -0.734375 -0.1875 -1.359375q-0.1875 -0.640625 -0.5625 -1.109375q-0.375 -0.453125 -0.953125 -0.71875q-0.5625 -0.265625 -1.3125 -0.265625q-0.609375 0 -1.1875 0.25q-0.578125 0.25 -1.03125 0.703125q-0.453125 0.46875 -0.734375 1.140625q-0.265625 0.671875 -0.265625 1.53125l0 0.265625q0 0.75 0.25 1.375q0.25 0.625 0.6875 1.078125q0.453125 0.453125 1.0625 0.703125q0.625 0.25 1.375 0.25zm-0.15625 -6.3125q0.453125 0 0.78125 0.171875q0.34375 0.171875 0.5625 0.4375q0.21875 0.28125 0.34375 0.65625q0.125 0.375 0.125 0.703125l0 0.046875l-3.78125 0q0.0625 -0.484375 0.234375 -0.859375q0.1875 -0.375 0.453125 -0.625q0.265625 -0.265625 0.578125 -0.390625q0.328125 -0.140625 0.703125 -0.140625zm5.5919495 -0.859375l-1.078125 0l0 7.046875l1.140625 0l0 -5.609375q0.046875 -0.09375 0.09375 -0.1875q0.0625 -0.09375 0.15625 -0.171875q0.109375 -0.078125 0.265625 -0.125q0.15625 -0.0625 0.375 -0.0625q0.203125 0 0.34375 0.0625q0.140625 0.046875 0.25 0.140625q0.09375 0.109375 0.140625 0.28125q0.046875 0.171875 0.046875 0.390625l0 5.28125l1.15625 0l0 -5.265625q0 -0.046875 0 -0.078125q0 -0.03125 0 -0.0625q0.015625 -0.15625 0.078125 -0.28125q0.0625 -0.140625 0.15625 -0.25q0.109375 -0.09375 0.265625 -0.15625q0.15625 -0.0625 0.375 -0.0625q0.203125 0 0.34375 0.0625q0.15625 0.046875 0.265625 0.15625q0.09375 0.109375 0.140625 0.28125q0.0625 0.15625 0.0625 0.390625l0 5.265625l1.140625 0l0 -5.265625q0 -0.5 -0.125 -0.875q-0.109375 -0.375 -0.328125 -0.609375q-0.203125 -0.203125 -0.5 -0.3125q-0.296875 -0.109375 -0.65625 -0.109375q-0.265625 0 -0.5 0.078125q-0.21875 0.0625 -0.390625 0.171875q-0.15625 0.09375 -0.28125 0.234375q-0.109375 0.125 -0.203125 0.265625q-0.078125 -0.15625 -0.1875 -0.28125q-0.09375 -0.140625 -0.21875 -0.234375q-0.15625 -0.109375 -0.390625 -0.171875q-0.21875 -0.0625 -0.5 -0.0625q-0.5 0 -0.84375 0.21875q-0.34375 0.203125 -0.5625 0.578125l-0.03125 -0.671875z" fill-rule="nonzero"/><path fill="#000000" fill-opacity="0.0" d="m233.69292 245.9685l96.12599 0l0 48.06299l-96.12599 0z" fill-rule="evenodd"/><path fill="#000000" d="m244.38042 267.7531l-1.078125 0l0 7.046875l1.140625 0l0 -5.609375q0.046875 -0.09375 0.09375 -0.1875q0.0625 -0.09375 0.15625 -0.171875q0.109375 -0.078125 0.265625 -0.125q0.15625 -0.0625 0.375 -0.0625q0.203125 0 0.34375 0.0625q0.140625 0.046875 0.25 0.140625q0.09375 0.109375 0.140625 0.28125q0.046875 0.171875 0.046875 0.390625l0 5.28125l1.15625 0l0 -5.265625q0 -0.046875 0 -0.078125q0 -0.03125 0 -0.0625q0.015625 -0.15625 0.078125 -0.28125q0.0625 -0.140625 0.15625 -0.25q0.109375 -0.09375 0.265625 -0.15625q0.15625 -0.0625 0.375 -0.0625q0.203125 0 0.34375 0.0625q0.15625 0.046875 0.265625 0.15625q0.09375 0.109375 0.140625 0.28125q0.0625 0.15625 0.0625 0.390625l0 5.265625l1.140625 0l0 -5.265625q0 -0.5 -0.125 -0.875q-0.109375 -0.375 -0.328125 -0.609375q-0.203125 -0.203125 -0.5 -0.3125q-0.296875 -0.109375 -0.65625 -0.109375q-0.265625 0 -0.5 0.078125q-0.21875 0.0625 -0.390625 0.171875q-0.15625 0.09375 -0.28125 0.234375q-0.109375 0.125 -0.203125 0.265625q-0.078125 -0.15625 -0.1875 -0.28125q-0.09375 -0.140625 -0.21875 -0.234375q-0.15625 -0.109375 -0.390625 -0.171875q-0.21875 -0.0625 -0.5 -0.0625q-0.5 0 -0.84375 0.21875q-0.34375 0.203125 -0.5625 0.578125l-0.03125 -0.671875zm10.560684 7.171875q1.015625 0 1.71875 -0.40625q0.703125 -0.421875 1.046875 -0.953125l-0.734375 -0.5625q-0.328125 0.421875 -0.828125 0.6875q-0.5 0.25 -1.140625 0.25q-0.5 0 -0.90625 -0.171875q-0.390625 -0.1875 -0.671875 -0.5q-0.28125 -0.296875 -0.453125 -0.6875q-0.15625 -0.390625 -0.203125 -0.90625l0 -0.046875l5.03125 0l0 -0.546875q0 -0.734375 -0.1875 -1.359375q-0.1875 -0.640625 -0.5625 -1.109375q-0.375 -0.453125 -0.953125 -0.71875q-0.5625 -0.265625 -1.3125 -0.265625q-0.609375 0 -1.1875 0.25q-0.578125 0.25 -1.03125 0.703125q-0.453125 0.46875 -0.734375 1.140625q-0.265625 0.671875 -0.265625 1.53125l0 0.265625q0 0.75 0.25 1.375q0.25 0.625 0.6875 1.078125q0.453125 0.453125 1.0625 0.703125q0.625 0.25 1.375 0.25zm-0.15625 -6.3125q0.453125 0 0.78125 0.171875q0.34375 0.171875 0.5625 0.4375q0.21875 0.28125 0.34375 0.65625q0.125 0.375 0.125 0.703125l0 0.046875l-3.78125 0q0.0625 -0.484375 0.234375 -0.859375q0.1875 -0.375 0.453125 -0.625q0.265625 -0.265625 0.578125 -0.390625q0.328125 -0.140625 0.703125 -0.140625zm5.591919 -0.859375l-1.078125 0l0 7.046875l1.140625 0l0 -5.609375q0.046875 -0.09375 0.09375 -0.1875q0.0625 -0.09375 0.15625 -0.171875q0.109375 -0.078125 0.265625 -0.125q0.15625 -0.0625 0.375 -0.0625q0.203125 0 0.34375 0.0625q0.140625 0.046875 0.25 0.140625q0.09375 0.109375 0.140625 0.28125q0.046875 0.171875 0.046875 0.390625l0 5.28125l1.15625 0l0 -5.265625q0 -0.046875 0 -0.078125q0 -0.03125 0 -0.0625q0.015625 -0.15625 0.078125 -0.28125q0.0625 -0.140625 0.15625 -0.25q0.109375 -0.09375 0.265625 -0.15625q0.15625 -0.0625 0.375 -0.0625q0.203125 0 0.34375 0.0625q0.15625 0.046875 0.265625 0.15625q0.09375 0.109375 0.140625 0.28125q0.0625 0.15625 0.0625 0.390625l0 5.265625l1.140625 0l0 -5.265625q0 -0.5 -0.125 -0.875q-0.109375 -0.375 -0.328125 -0.609375q-0.203125 -0.203125 -0.5 -0.3125q-0.296875 -0.109375 -0.65625 -0.109375q-0.265625 0 -0.5 0.078125q-0.21875 0.0625 -0.390625 0.171875q-0.15625 0.09375 -0.28125 0.234375q-0.109375 0.125 -0.203125 0.265625q-0.078125 -0.15625 -0.1875 -0.28125q-0.09375 -0.140625 -0.21875 -0.234375q-0.15625 -0.109375 -0.390625 -0.171875q-0.21875 -0.0625 -0.5 -0.0625q-0.5 0 -0.84375 0.21875q-0.34375 0.203125 -0.5625 0.578125l-0.03125 -0.671875zm13.404449 3.609375l0 -0.140625q0 -0.546875 -0.09375 -1.046875q-0.078125 -0.5 -0.265625 -0.90625q-0.15625 -0.375 -0.390625 -0.671875q-0.21875 -0.296875 -0.5 -0.5q-0.3125 -0.21875 -0.703125 -0.34375q-0.375 -0.125 -0.828125 -0.125q-0.359375 0 -0.671875 0.078125q-0.3125 0.0625 -0.578125 0.203125q-0.203125 0.109375 -0.390625 0.265625q-0.171875 0.15625 -0.328125 0.34375l0 -3.71875l-1.203125 0l0 10.0l1.109375 0l0.046875 -0.796875q0.125 0.140625 0.25 0.265625q0.140625 0.125 0.28125 0.234375q0.296875 0.203125 0.671875 0.3125q0.375 0.109375 0.828125 0.109375q0.390625 0 0.734375 -0.09375q0.34375 -0.09375 0.625 -0.265625q0.40625 -0.265625 0.6875 -0.640625q0.28125 -0.390625 0.453125 -0.875q0.140625 -0.375 0.203125 -0.796875q0.0625 -0.4375 0.0625 -0.890625zm-1.203125 -0.140625l0 0.140625q0 0.3125 -0.046875 0.609375q-0.03125 0.296875 -0.109375 0.5625q-0.109375 0.34375 -0.28125 0.625q-0.171875 0.28125 -0.4375 0.453125q-0.1875 0.140625 -0.4375 0.21875q-0.25 0.078125 -0.546875 0.078125q-0.3125 0 -0.578125 -0.078125q-0.25 -0.078125 -0.46875 -0.234375q-0.203125 -0.15625 -0.375 -0.34375q-0.15625 -0.203125 -0.265625 -0.4375l0 -3.078125q0.109375 -0.234375 0.265625 -0.421875q0.15625 -0.203125 0.375 -0.359375q0.203125 -0.140625 0.453125 -0.21875q0.265625 -0.09375 0.578125 -0.09375q0.28125 0 0.515625 0.078125q0.234375 0.0625 0.421875 0.171875q0.28125 0.171875 0.46875 0.453125q0.1875 0.28125 0.3125 0.625q0.078125 0.28125 0.109375 0.609375q0.046875 0.3125 0.046875 0.640625zm6.357544 3.703125q1.015625 0 1.71875 -0.40625q0.703125 -0.421875 1.046875 -0.953125l-0.734375 -0.5625q-0.328125 0.421875 -0.828125 0.6875q-0.5 0.25 -1.140625 0.25q-0.5 0 -0.90625 -0.171875q-0.390625 -0.1875 -0.671875 -0.5q-0.28125 -0.296875 -0.453125 -0.6875q-0.15625 -0.390625 -0.203125 -0.90625l0 -0.046875l5.03125 0l0 -0.546875q0 -0.734375 -0.1875 -1.359375q-0.1875 -0.640625 -0.5625 -1.109375q-0.375 -0.453125 -0.953125 -0.71875q-0.5625 -0.265625 -1.3125 -0.265625q-0.609375 0 -1.1875 0.25q-0.578125 0.25 -1.03125 0.703125q-0.453125 0.46875 -0.734375 1.140625q-0.265625 0.671875 -0.265625 1.53125l0 0.265625q0 0.75 0.25 1.375q0.25 0.625 0.6875 1.078125q0.453125 0.453125 1.0625 0.703125q0.625 0.25 1.375 0.25zm-0.15625 -6.3125q0.453125 0 0.78125 0.171875q0.34375 0.171875 0.5625 0.4375q0.21875 0.28125 0.34375 0.65625q0.125 0.375 0.125 0.703125l0 0.046875l-3.78125 0q0.0625 -0.484375 0.234375 -0.859375q0.1875 -0.375 0.453125 -0.625q0.265625 -0.265625 0.578125 -0.390625q0.328125 -0.140625 0.703125 -0.140625zm9.654449 -0.984375q-0.765625 0 -1.375 0.34375q-0.59375 0.328125 -1.03125 0.90625l0 -0.171875l-0.0625 -0.953125l-1.140625 0l0 7.046875l1.203125 0l0 -4.515625q0.125 -0.328125 0.296875 -0.59375q0.1875 -0.265625 0.421875 -0.4375q0.265625 -0.21875 0.625 -0.3125q0.359375 -0.109375 0.8125 -0.109375q0.34375 0 0.65625 0.03125q0.3125 0.03125 0.65625 0.109375l0.171875 -1.171875q-0.1875 -0.078125 -0.546875 -0.125q-0.359375 -0.046875 -0.6875 -0.046875z" fill-rule="nonzero"/><path fill="#000000" fill-opacity="0.0" d="m233.69292 342.09448l96.12599 0l0 48.06299l-96.12599 0z" fill-rule="evenodd"/><path fill="#000000" d="m248.45854 370.926l1.25 0l0 -0.109375q-0.125 -0.28125 -0.1875 -0.671875q-0.0625 -0.40625 -0.0625 -0.75l0 -3.28125q0 -0.59375 -0.21875 -1.03125q-0.203125 -0.4375 -0.578125 -0.75q-0.375 -0.28125 -0.890625 -0.421875q-0.515625 -0.15625 -1.109375 -0.15625q-0.65625 0 -1.1875 0.1875q-0.515625 0.171875 -0.875 0.46875q-0.359375 0.296875 -0.546875 0.671875q-0.1875 0.375 -0.203125 0.75l1.21875 0q0 -0.21875 0.09375 -0.421875q0.109375 -0.203125 0.3125 -0.359375q0.1875 -0.140625 0.46875 -0.234375q0.296875 -0.09375 0.640625 -0.09375q0.390625 0 0.703125 0.109375q0.3125 0.09375 0.515625 0.265625q0.21875 0.171875 0.328125 0.4375q0.125 0.25 0.125 0.5625l0 0.5625l-1.3125 0q-0.734375 0 -1.328125 0.140625q-0.59375 0.140625 -1.015625 0.421875q-0.421875 0.296875 -0.65625 0.734375q-0.234375 0.4375 -0.234375 1.015625q0 0.4375 0.171875 0.828125q0.171875 0.375 0.484375 0.65625q0.3125 0.28125 0.765625 0.4375q0.453125 0.15625 1.015625 0.15625q0.34375 0 0.640625 -0.078125q0.3125 -0.0625 0.59375 -0.1875q0.265625 -0.125 0.484375 -0.28125q0.234375 -0.15625 0.40625 -0.34375q0.03125 0.21875 0.0625 0.421875q0.046875 0.203125 0.125 0.34375zm-2.140625 -0.921875q-0.34375 0 -0.609375 -0.078125q-0.265625 -0.09375 -0.4375 -0.265625q-0.1875 -0.15625 -0.28125 -0.375q-0.078125 -0.21875 -0.078125 -0.484375q0 -0.265625 0.09375 -0.484375q0.109375 -0.21875 0.296875 -0.375q0.28125 -0.21875 0.734375 -0.328125q0.46875 -0.109375 1.09375 -0.109375l1.125 0l0 1.4375q-0.109375 0.203125 -0.296875 0.390625q-0.171875 0.1875 -0.421875 0.34375q-0.25 0.15625 -0.5625 0.25q-0.296875 0.078125 -0.65625 0.078125zm8.498184 0.078125q-0.5625 0 -0.9375 -0.21875q-0.375 -0.234375 -0.609375 -0.59375q-0.234375 -0.359375 -0.34375 -0.8125q-0.09375 -0.453125 -0.09375 -0.921875l0 -0.265625q0 -0.453125 0.09375 -0.90625q0.109375 -0.453125 0.34375 -0.8125q0.234375 -0.359375 0.609375 -0.578125q0.390625 -0.234375 0.9375 -0.234375q0.375 0 0.6875 0.125q0.3125 0.125 0.546875 0.34375q0.21875 0.21875 0.34375 0.5q0.140625 0.28125 0.15625 0.59375l1.140625 0q0 -0.53125 -0.21875 -1.0q-0.21875 -0.46875 -0.59375 -0.8125q-0.375 -0.34375 -0.90625 -0.53125q-0.53125 -0.203125 -1.15625 -0.203125q-0.796875 0 -1.390625 0.296875q-0.59375 0.28125 -1.0 0.75q-0.40625 0.5 -0.609375 1.140625q-0.1875 0.625 -0.1875 1.328125l0 0.265625q0 0.703125 0.1875 1.34375q0.203125 0.640625 0.609375 1.109375q0.40625 0.5 1.0 0.78125q0.59375 0.28125 1.390625 0.28125q0.5625 0 1.078125 -0.1875q0.515625 -0.1875 0.921875 -0.515625q0.390625 -0.3125 0.625 -0.734375q0.234375 -0.4375 0.25 -0.90625l-1.140625 0q-0.015625 0.296875 -0.15625 0.546875q-0.140625 0.25 -0.390625 0.421875q-0.234375 0.203125 -0.546875 0.3125q-0.3125 0.09375 -0.640625 0.09375zm7.998169 0q-0.5625 0 -0.9375 -0.21875q-0.375 -0.234375 -0.609375 -0.59375q-0.234375 -0.359375 -0.34375 -0.8125q-0.09375 -0.453125 -0.09375 -0.921875l0 -0.265625q0 -0.453125 0.09375 -0.90625q0.109375 -0.453125 0.34375 -0.8125q0.234375 -0.359375 0.609375 -0.578125q0.390625 -0.234375 0.9375 -0.234375q0.375 0 0.6875 0.125q0.3125 0.125 0.546875 0.34375q0.21875 0.21875 0.34375 0.5q0.140625 0.28125 0.15625 0.59375l1.140625 0q0 -0.53125 -0.21875 -1.0q-0.21875 -0.46875 -0.59375 -0.8125q-0.375 -0.34375 -0.90625 -0.53125q-0.53125 -0.203125 -1.15625 -0.203125q-0.796875 0 -1.390625 0.296875q-0.59375 0.28125 -1.0 0.75q-0.40625 0.5 -0.609375 1.140625q-0.1875 0.625 -0.1875 1.328125l0 0.265625q0 0.703125 0.1875 1.34375q0.203125 0.640625 0.609375 1.109375q0.40625 0.5 1.0 0.78125q0.59375 0.28125 1.390625 0.28125q0.5625 0 1.078125 -0.1875q0.515625 -0.1875 0.921875 -0.515625q0.390625 -0.3125 0.625 -0.734375q0.234375 -0.4375 0.25 -0.90625l-1.140625 0q-0.015625 0.296875 -0.15625 0.546875q-0.140625 0.25 -0.390625 0.421875q-0.234375 0.203125 -0.546875 0.3125q-0.3125 0.09375 -0.640625 0.09375zm8.123199 0.96875q1.015625 0 1.71875 -0.40625q0.703125 -0.421875 1.046875 -0.953125l-0.734375 -0.5625q-0.328125 0.421875 -0.828125 0.6875q-0.5 0.25 -1.140625 0.25q-0.5 0 -0.90625 -0.171875q-0.390625 -0.1875 -0.671875 -0.5q-0.28125 -0.296875 -0.453125 -0.6875q-0.15625 -0.390625 -0.203125 -0.90625l0 -0.046875l5.03125 0l0 -0.546875q0 -0.734375 -0.1875 -1.359375q-0.1875 -0.640625 -0.5625 -1.109375q-0.375 -0.453125 -0.953125 -0.71875q-0.5625 -0.265625 -1.3125 -0.265625q-0.609375 0 -1.1875 0.25q-0.578125 0.25 -1.03125 0.703125q-0.453125 0.46875 -0.734375 1.140625q-0.265625 0.671875 -0.265625 1.53125l0 0.265625q0 0.75 0.25 1.375q0.25 0.625 0.6875 1.078125q0.453125 0.453125 1.0625 0.703125q0.625 0.25 1.375 0.25zm-0.15625 -6.3125q0.453125 0 0.78125 0.171875q0.34375 0.171875 0.5625 0.4375q0.21875 0.28125 0.34375 0.65625q0.125 0.375 0.125 0.703125l0 0.046875l-3.78125 0q0.0625 -0.484375 0.234375 -0.859375q0.1875 -0.375 0.453125 -0.625q0.265625 -0.265625 0.578125 -0.390625q0.328125 -0.140625 0.703125 -0.140625zm9.716919 4.3125q0 0.171875 -0.0625 0.328125q-0.0625 0.140625 -0.1875 0.265625q-0.203125 0.203125 -0.5625 0.328125q-0.359375 0.109375 -0.84375 0.109375q-0.296875 0 -0.609375 -0.0625q-0.3125 -0.0625 -0.578125 -0.21875q-0.25 -0.15625 -0.421875 -0.40625q-0.171875 -0.265625 -0.203125 -0.640625l-1.203125 0q0 0.453125 0.203125 0.875q0.203125 0.40625 0.59375 0.71875q0.390625 0.328125 0.9375 0.515625q0.5625 0.1875 1.28125 0.1875q0.625 0 1.15625 -0.140625q0.53125 -0.15625 0.90625 -0.421875q0.375 -0.28125 0.578125 -0.65625q0.21875 -0.390625 0.21875 -0.859375q0 -0.4375 -0.1875 -0.765625q-0.1875 -0.328125 -0.53125 -0.59375q-0.359375 -0.234375 -0.875 -0.40625q-0.515625 -0.1875 -1.15625 -0.328125q-0.5 -0.09375 -0.828125 -0.203125q-0.3125 -0.109375 -0.5 -0.234375q-0.203125 -0.125 -0.28125 -0.28125q-0.078125 -0.171875 -0.078125 -0.375q0 -0.203125 0.09375 -0.390625q0.109375 -0.203125 0.296875 -0.34375q0.1875 -0.140625 0.46875 -0.21875q0.296875 -0.09375 0.6875 -0.09375q0.375 0 0.671875 0.109375q0.296875 0.109375 0.5 0.265625q0.203125 0.171875 0.3125 0.390625q0.125 0.21875 0.125 0.453125l1.203125 0q0 -0.46875 -0.203125 -0.859375q-0.1875 -0.40625 -0.546875 -0.703125q-0.375 -0.296875 -0.890625 -0.46875q-0.515625 -0.171875 -1.171875 -0.171875q-0.609375 0 -1.109375 0.171875q-0.5 0.15625 -0.875 0.4375q-0.359375 0.28125 -0.5625 0.65625q-0.203125 0.375 -0.203125 0.796875q0 0.4375 0.1875 0.765625q0.203125 0.328125 0.5625 0.5625q0.359375 0.25 0.84375 0.4375q0.5 0.171875 1.109375 0.296875q0.5 0.09375 0.828125 0.21875q0.328125 0.109375 0.53125 0.25q0.203125 0.15625 0.28125 0.328125q0.09375 0.171875 0.09375 0.375zm7.9981995 0q0 0.171875 -0.0625 0.328125q-0.0625 0.140625 -0.1875 0.265625q-0.203125 0.203125 -0.5625 0.328125q-0.359375 0.109375 -0.84375 0.109375q-0.296875 0 -0.609375 -0.0625q-0.3125 -0.0625 -0.578125 -0.21875q-0.25 -0.15625 -0.421875 -0.40625q-0.171875 -0.265625 -0.203125 -0.640625l-1.203125 0q0 0.453125 0.203125 0.875q0.203125 0.40625 0.59375 0.71875q0.390625 0.328125 0.9375 0.515625q0.5625 0.1875 1.28125 0.1875q0.625 0 1.15625 -0.140625q0.53125 -0.15625 0.90625 -0.421875q0.375 -0.28125 0.578125 -0.65625q0.21875 -0.390625 0.21875 -0.859375q0 -0.4375 -0.1875 -0.765625q-0.1875 -0.328125 -0.53125 -0.59375q-0.359375 -0.234375 -0.875 -0.40625q-0.515625 -0.1875 -1.15625 -0.328125q-0.5 -0.09375 -0.828125 -0.203125q-0.3125 -0.109375 -0.5 -0.234375q-0.203125 -0.125 -0.28125 -0.28125q-0.078125 -0.171875 -0.078125 -0.375q0 -0.203125 0.09375 -0.390625q0.109375 -0.203125 0.296875 -0.34375q0.1875 -0.140625 0.46875 -0.21875q0.296875 -0.09375 0.6875 -0.09375q0.375 0 0.671875 0.109375q0.296875 0.109375 0.5 0.265625q0.203125 0.171875 0.3125 0.390625q0.125 0.21875 0.125 0.453125l1.203125 0q0 -0.46875 -0.203125 -0.859375q-0.1875 -0.40625 -0.546875 -0.703125q-0.375 -0.296875 -0.890625 -0.46875q-0.515625 -0.171875 -1.171875 -0.171875q-0.609375 0 -1.109375 0.171875q-0.5 0.15625 -0.875 0.4375q-0.359375 0.28125 -0.5625 0.65625q-0.203125 0.375 -0.203125 0.796875q0 0.4375 0.1875 0.765625q0.203125 0.328125 0.5625 0.5625q0.359375 0.25 0.84375 0.4375q0.5 0.171875 1.109375 0.296875q0.5 0.09375 0.828125 0.21875q0.328125 0.109375 0.53125 0.25q0.203125 0.15625 0.28125 0.328125q0.09375 0.171875 0.09375 0.375z" fill-rule="nonzero"/></g></svg>